<mxfile host="app.diagrams.net" modified="2023-11-14T02:47:54.920Z" agent="Mozilla/5.0 (Windows NT 10.0; Win64; x64) AppleWebKit/537.36 (KHTML, like Gecko) Chrome/118.0.0.0 Safari/537.36" etag="OmWOHqObLIfaWjyRE5tw" version="22.1.0" type="github">
  <diagram name="Page-1" id="822b0af5-4adb-64df-f703-e8dfc1f81529">
    <mxGraphModel dx="2534" dy="758" grid="1" gridSize="10" guides="1" tooltips="1" connect="1" arrows="1" fold="1" page="1" pageScale="1" pageWidth="1100" pageHeight="850" background="none" math="0" shadow="0">
      <root>
        <mxCell id="0" />
        <mxCell id="1" parent="0" />
        <mxCell id="jvI7b4pxvWS0I2Bcl6QX-11" style="edgeStyle=orthogonalEdgeStyle;rounded=0;orthogonalLoop=1;jettySize=auto;html=1;" edge="1" parent="1" source="jvI7b4pxvWS0I2Bcl6QX-1" target="jvI7b4pxvWS0I2Bcl6QX-3">
          <mxGeometry relative="1" as="geometry">
            <Array as="points">
              <mxPoint x="248" y="121" />
            </Array>
          </mxGeometry>
        </mxCell>
        <mxCell id="jvI7b4pxvWS0I2Bcl6QX-26" value="广域网（HTTPS）" style="edgeLabel;html=1;align=center;verticalAlign=middle;resizable=0;points=[];" vertex="1" connectable="0" parent="jvI7b4pxvWS0I2Bcl6QX-11">
          <mxGeometry x="0.1474" y="1" relative="1" as="geometry">
            <mxPoint x="1" as="offset" />
          </mxGeometry>
        </mxCell>
        <mxCell id="jvI7b4pxvWS0I2Bcl6QX-1" value="防火墙" style="verticalLabelPosition=bottom;sketch=0;aspect=fixed;html=1;verticalAlign=top;strokeColor=none;align=center;outlineConnect=0;shape=mxgraph.citrix.firewall;" vertex="1" parent="1">
          <mxGeometry x="210" y="190" width="75" height="93" as="geometry" />
        </mxCell>
        <mxCell id="jvI7b4pxvWS0I2Bcl6QX-13" style="edgeStyle=orthogonalEdgeStyle;rounded=0;orthogonalLoop=1;jettySize=auto;html=1;" edge="1" parent="1" source="jvI7b4pxvWS0I2Bcl6QX-2" target="jvI7b4pxvWS0I2Bcl6QX-1">
          <mxGeometry relative="1" as="geometry" />
        </mxCell>
        <mxCell id="jvI7b4pxvWS0I2Bcl6QX-29" value="局域网（HTTPS）" style="edgeLabel;html=1;align=center;verticalAlign=middle;resizable=0;points=[];" vertex="1" connectable="0" parent="jvI7b4pxvWS0I2Bcl6QX-13">
          <mxGeometry x="-0.1828" y="1" relative="1" as="geometry">
            <mxPoint x="1" as="offset" />
          </mxGeometry>
        </mxCell>
        <mxCell id="jvI7b4pxvWS0I2Bcl6QX-47" style="edgeStyle=orthogonalEdgeStyle;rounded=0;orthogonalLoop=1;jettySize=auto;html=1;" edge="1" parent="1" source="jvI7b4pxvWS0I2Bcl6QX-2" target="jvI7b4pxvWS0I2Bcl6QX-43">
          <mxGeometry relative="1" as="geometry" />
        </mxCell>
        <mxCell id="jvI7b4pxvWS0I2Bcl6QX-51" value="USB" style="edgeLabel;html=1;align=center;verticalAlign=middle;resizable=0;points=[];" vertex="1" connectable="0" parent="jvI7b4pxvWS0I2Bcl6QX-47">
          <mxGeometry x="0.2063" relative="1" as="geometry">
            <mxPoint as="offset" />
          </mxGeometry>
        </mxCell>
        <mxCell id="jvI7b4pxvWS0I2Bcl6QX-49" style="edgeStyle=orthogonalEdgeStyle;rounded=0;orthogonalLoop=1;jettySize=auto;html=1;" edge="1" parent="1" source="jvI7b4pxvWS0I2Bcl6QX-2" target="jvI7b4pxvWS0I2Bcl6QX-7">
          <mxGeometry relative="1" as="geometry" />
        </mxCell>
        <mxCell id="jvI7b4pxvWS0I2Bcl6QX-2" value="电脑" style="verticalLabelPosition=bottom;sketch=0;aspect=fixed;html=1;verticalAlign=top;strokeColor=none;align=center;outlineConnect=0;shape=mxgraph.citrix.desktop;" vertex="1" parent="1">
          <mxGeometry x="203" y="376" width="89" height="98" as="geometry" />
        </mxCell>
        <mxCell id="jvI7b4pxvWS0I2Bcl6QX-12" style="edgeStyle=orthogonalEdgeStyle;rounded=0;orthogonalLoop=1;jettySize=auto;html=1;" edge="1" parent="1" source="jvI7b4pxvWS0I2Bcl6QX-3" target="jvI7b4pxvWS0I2Bcl6QX-10">
          <mxGeometry relative="1" as="geometry" />
        </mxCell>
        <mxCell id="jvI7b4pxvWS0I2Bcl6QX-27" value="广域网（HTTPS）" style="edgeLabel;html=1;align=center;verticalAlign=middle;resizable=0;points=[];" vertex="1" connectable="0" parent="jvI7b4pxvWS0I2Bcl6QX-12">
          <mxGeometry x="-0.3116" y="-2" relative="1" as="geometry">
            <mxPoint as="offset" />
          </mxGeometry>
        </mxCell>
        <mxCell id="jvI7b4pxvWS0I2Bcl6QX-3" value="运营商网络" style="verticalLabelPosition=bottom;sketch=0;aspect=fixed;html=1;verticalAlign=top;strokeColor=none;align=center;outlineConnect=0;shape=mxgraph.citrix.cloud;" vertex="1" parent="1">
          <mxGeometry x="460" y="90" width="95" height="62" as="geometry" />
        </mxCell>
        <mxCell id="jvI7b4pxvWS0I2Bcl6QX-5" value="影像存储服务" style="verticalLabelPosition=bottom;sketch=0;aspect=fixed;html=1;verticalAlign=top;strokeColor=none;align=center;outlineConnect=0;shape=mxgraph.citrix.file_server;" vertex="1" parent="1">
          <mxGeometry x="810" y="513" width="71" height="97" as="geometry" />
        </mxCell>
        <mxCell id="jvI7b4pxvWS0I2Bcl6QX-15" style="edgeStyle=orthogonalEdgeStyle;rounded=0;orthogonalLoop=1;jettySize=auto;html=1;" edge="1" parent="1" source="jvI7b4pxvWS0I2Bcl6QX-6">
          <mxGeometry relative="1" as="geometry">
            <mxPoint x="668.8000000000002" y="527.5" as="targetPoint" />
          </mxGeometry>
        </mxCell>
        <mxCell id="jvI7b4pxvWS0I2Bcl6QX-30" value="局域网（HTTPS）" style="edgeLabel;html=1;align=center;verticalAlign=middle;resizable=0;points=[];" vertex="1" connectable="0" parent="jvI7b4pxvWS0I2Bcl6QX-15">
          <mxGeometry x="0.192" y="5" relative="1" as="geometry">
            <mxPoint x="-3" y="11" as="offset" />
          </mxGeometry>
        </mxCell>
        <mxCell id="jvI7b4pxvWS0I2Bcl6QX-16" style="edgeStyle=orthogonalEdgeStyle;rounded=0;orthogonalLoop=1;jettySize=auto;html=1;" edge="1" parent="1" source="jvI7b4pxvWS0I2Bcl6QX-6" target="jvI7b4pxvWS0I2Bcl6QX-5">
          <mxGeometry relative="1" as="geometry" />
        </mxCell>
        <mxCell id="jvI7b4pxvWS0I2Bcl6QX-31" value="局域网（HTTPS）" style="edgeLabel;html=1;align=center;verticalAlign=middle;resizable=0;points=[];" vertex="1" connectable="0" parent="jvI7b4pxvWS0I2Bcl6QX-16">
          <mxGeometry x="0.4545" y="3" relative="1" as="geometry">
            <mxPoint x="-3" y="6" as="offset" />
          </mxGeometry>
        </mxCell>
        <mxCell id="jvI7b4pxvWS0I2Bcl6QX-6" value="负载均衡服务" style="verticalLabelPosition=bottom;sketch=0;aspect=fixed;html=1;verticalAlign=top;strokeColor=none;align=center;outlineConnect=0;shape=mxgraph.citrix.web_service;" vertex="1" parent="1">
          <mxGeometry x="716" y="384.5" width="63" height="60" as="geometry" />
        </mxCell>
        <mxCell id="jvI7b4pxvWS0I2Bcl6QX-48" style="edgeStyle=orthogonalEdgeStyle;rounded=0;orthogonalLoop=1;jettySize=auto;html=1;" edge="1" parent="1" source="jvI7b4pxvWS0I2Bcl6QX-7" target="jvI7b4pxvWS0I2Bcl6QX-2">
          <mxGeometry relative="1" as="geometry" />
        </mxCell>
        <mxCell id="jvI7b4pxvWS0I2Bcl6QX-50" value="局域网（TCP/IP）" style="edgeLabel;html=1;align=center;verticalAlign=middle;resizable=0;points=[];" vertex="1" connectable="0" parent="jvI7b4pxvWS0I2Bcl6QX-48">
          <mxGeometry x="-0.0576" relative="1" as="geometry">
            <mxPoint as="offset" />
          </mxGeometry>
        </mxCell>
        <mxCell id="jvI7b4pxvWS0I2Bcl6QX-7" value="CBCT 设备" style="verticalLabelPosition=bottom;sketch=0;aspect=fixed;html=1;verticalAlign=top;strokeColor=none;align=center;outlineConnect=0;shape=mxgraph.citrix.hq_enterprise;" vertex="1" parent="1">
          <mxGeometry x="201.5" y="620" width="92" height="88" as="geometry" />
        </mxCell>
        <mxCell id="jvI7b4pxvWS0I2Bcl6QX-14" style="edgeStyle=orthogonalEdgeStyle;rounded=0;orthogonalLoop=1;jettySize=auto;html=1;" edge="1" parent="1" source="jvI7b4pxvWS0I2Bcl6QX-10" target="jvI7b4pxvWS0I2Bcl6QX-6">
          <mxGeometry relative="1" as="geometry" />
        </mxCell>
        <mxCell id="jvI7b4pxvWS0I2Bcl6QX-28" value="局域网（HTTPS）" style="edgeLabel;html=1;align=center;verticalAlign=middle;resizable=0;points=[];" vertex="1" connectable="0" parent="jvI7b4pxvWS0I2Bcl6QX-14">
          <mxGeometry x="0.1379" y="2" relative="1" as="geometry">
            <mxPoint y="1" as="offset" />
          </mxGeometry>
        </mxCell>
        <mxCell id="jvI7b4pxvWS0I2Bcl6QX-10" value="防火墙" style="verticalLabelPosition=bottom;sketch=0;aspect=fixed;html=1;verticalAlign=top;strokeColor=none;align=center;outlineConnect=0;shape=mxgraph.citrix.firewall;" vertex="1" parent="1">
          <mxGeometry x="710" y="204.5" width="75" height="93" as="geometry" />
        </mxCell>
        <mxCell id="jvI7b4pxvWS0I2Bcl6QX-23" value="病例存储服务" style="verticalLabelPosition=bottom;sketch=0;aspect=fixed;html=1;verticalAlign=top;strokeColor=none;align=center;outlineConnect=0;shape=mxgraph.citrix.web_service;" vertex="1" parent="1">
          <mxGeometry x="640" y="526.5" width="63" height="60" as="geometry" />
        </mxCell>
        <mxCell id="jvI7b4pxvWS0I2Bcl6QX-43" value="" style="fontColor=#0066CC;verticalAlign=top;verticalLabelPosition=bottom;labelPosition=center;align=center;html=1;outlineConnect=0;fillColor=#CCCCCC;strokeColor=#6881B3;gradientColor=none;gradientDirection=north;strokeWidth=2;shape=mxgraph.networks.usb_stick;" vertex="1" parent="1">
          <mxGeometry x="-30" y="387" width="40" height="76.5" as="geometry" />
        </mxCell>
      </root>
    </mxGraphModel>
  </diagram>
</mxfile>
